<svg width="241" height="54" viewBox="0 0 241 54" fill="none" xmlns="http://www.w3.org/2000/svg">
<path d="M57.039 6.67899L65.2819 25.7378H65.3377L73.6645 6.67899H77.8558V30.9916H74.9684V10.6007H74.8939L66.1853 31.0009H64.4343L55.6977 10.6007H55.6232V31.0009H52.7545V6.67899H57.039Z" fill="#0A0605"/>
<path d="M92.5067 6.67899C96.0461 6.67899 98.952 7.79681 101.215 10.0324C103.488 12.2588 104.652 15.193 104.689 18.826C104.689 22.4496 103.553 25.3745 101.271 27.6008C98.9893 29.8179 96.0926 30.945 92.5813 31.0009H83.4442V6.67899H92.5067ZM91.8268 28.3181C94.8632 28.3181 97.2476 27.517 98.9707 25.8962C100.703 24.2846 101.579 21.9279 101.607 18.8353C101.607 15.8637 100.759 13.5536 99.0638 11.9048C97.3687 10.2467 94.9563 9.39901 91.8268 9.36175H86.3129V28.3181H91.8268Z" fill="#0A0605"/>
<path d="M125.497 6.67899C128.682 6.67899 131.02 7.20995 132.52 8.27188C134.019 9.32449 134.774 11.0105 134.774 13.3393C134.774 15.0626 134.261 16.4785 133.237 17.587C132.231 18.7049 130.713 19.4408 128.692 19.8041L135.603 31.0009H132.054L125.478 20.0742H121.753V31.0009H118.884V6.67899H125.497ZM125.18 17.3914C127.453 17.3914 129.102 17.084 130.126 16.4599C131.16 15.8265 131.681 14.8018 131.681 13.3766C131.681 11.9514 131.216 11.0012 130.284 10.3492C129.362 9.68778 127.928 9.36175 125.972 9.36175H121.743V17.4007H125.18V17.3914Z" fill="#0A0605"/>
<path d="M155.125 6.67897V9.36174H142.728V16.9909H154.314V19.6736H142.728V28.3274H155.749V31.0102H139.859V6.67897H155.134H155.125ZM151.995 0L147.087 4.94635H144.637L148.204 0H151.986H151.995Z" fill="#0A0605"/>
<path d="M163.843 6.67899L177.935 26.8836H178.009V6.67899H180.878V30.9916H177.246L163.154 10.787H163.079V30.9916H160.21V6.67899H163.843Z" fill="#0A0605"/>
<path d="M198.211 6.05487C201.872 6.05487 204.89 7.25653 207.274 9.66915C209.649 12.0725 210.869 15.1278 210.925 18.826C210.897 22.6079 209.668 25.6726 207.237 28.048C204.815 30.4047 201.807 31.5877 198.211 31.6157C194.551 31.6157 191.524 30.4047 189.149 27.9828C186.765 25.5701 185.554 22.5054 185.498 18.826C185.498 15.1651 186.69 12.1377 189.065 9.74367C191.44 7.34036 194.486 6.11076 198.202 6.05487H198.211ZM188.59 18.826C188.59 21.7416 189.503 24.1356 191.347 26.0266C193.182 27.9176 195.473 28.8863 198.221 28.9422C200.959 28.9422 203.241 27.9828 205.048 26.0545C206.855 24.1263 207.786 21.723 207.842 18.8353C207.842 16.0314 206.948 13.6654 205.16 11.7278C203.371 9.79025 201.043 8.79353 198.174 8.73764C195.38 8.76558 193.098 9.74367 191.328 11.6905C189.549 13.6188 188.637 16.0035 188.59 18.8353V18.826Z" fill="#0A0605"/>
<path d="M215.48 6.67899L222.968 26.6693H223.043L230.764 6.67899H233.81L224.3 30.9916H221.524L212.21 6.67899H215.47H215.48Z" fill="#0A0605"/>
<path d="M241 6.67899L238.187 14.9229H235.57L237.88 6.67899H241Z" fill="#0A0605"/>
<path d="M54.664 33.814V47.3955H61.6495V49.0816H52.8571V33.8047H54.664V33.814Z" fill="#0A0605"/>
<path d="M66.4276 33.814L64.6579 38.9933H63.028L64.4623 33.814H66.4183H66.4276Z" fill="#0A0605"/>
<path d="M73.9159 38.7418C75.3969 38.7418 76.5611 39.2168 77.4087 40.1577C78.247 41.0892 78.6754 42.4213 78.694 44.1539V44.5637H70.5629C70.6374 45.4953 70.9913 46.2684 71.6154 46.8739C72.2394 47.4701 72.9939 47.7775 73.888 47.7868C75.2478 47.7868 76.3003 47.2745 77.0734 46.2498L78.3587 47.2558C77.8278 47.9451 77.2038 48.4575 76.4773 48.8115C75.7508 49.1654 74.8939 49.3331 73.8973 49.3331C72.3512 49.3331 71.1124 48.8394 70.1717 47.8427C69.2403 46.846 68.7653 45.5791 68.756 44.0421C68.756 42.5144 69.231 41.2662 70.1903 40.2788C71.1497 39.282 72.3884 38.779 73.9346 38.7418H73.9159ZM76.8871 43.1292C76.8499 42.2629 76.5611 41.5736 76.0302 41.0706C75.5086 40.5582 74.7728 40.2974 73.8135 40.2974C72.9566 40.2974 72.2301 40.5489 71.6433 41.0333C71.0565 41.5177 70.6933 42.2163 70.5536 43.1292H76.8778H76.8871Z" fill="#0A0605"/>
<path d="M84.385 38.7418C85.9963 38.7604 87.1419 39.3659 87.8218 40.5675L86.4247 41.4991C85.9311 40.6979 85.2232 40.2974 84.2918 40.2974C83.7237 40.2974 83.2394 40.4278 82.8575 40.6886C82.4756 40.9495 82.2986 41.2848 82.2986 41.6947C82.2986 42.3654 83.1369 42.8498 84.8227 43.1478C86.0336 43.3714 86.8904 43.7254 87.3841 44.2191C87.887 44.7128 88.1385 45.3648 88.1385 46.1753C88.1385 47.172 87.766 47.9545 87.0302 48.5041C86.3037 49.063 85.335 49.3424 84.1149 49.3424C83.1555 49.3424 82.3732 49.1934 81.7677 48.8953C81.153 48.5972 80.6314 48.1315 80.175 47.4794L81.5163 46.4268C81.9447 46.9298 82.3545 47.2931 82.755 47.498C83.1555 47.6936 83.6119 47.7868 84.1149 47.7868C84.7575 47.7868 85.2884 47.6471 85.7076 47.3769C86.1174 47.0975 86.3316 46.7155 86.3316 46.2312C86.3316 45.7468 86.1081 45.3928 85.6703 45.1413C85.2326 44.8991 84.4967 44.6662 83.4815 44.4613C82.4849 44.2563 81.7584 43.9396 81.3114 43.5111C80.855 43.0733 80.6314 42.4771 80.6314 41.704C80.6314 40.847 80.9667 40.1484 81.656 39.5894C82.3545 39.0399 83.2673 38.7511 84.3943 38.7325L84.385 38.7418Z" fill="#0A0605"/>
<path d="M95.7387 38.7418C97.3408 38.7418 98.6168 39.2448 99.5854 40.2601C100.545 41.2569 101.029 42.5237 101.057 44.0421C101.057 45.5605 100.563 46.8087 99.5854 47.8054C98.6168 48.8021 97.4246 49.3052 96.0182 49.3424C95.152 49.3424 94.3696 49.1561 93.671 48.8021C92.9725 48.4295 92.4602 47.9265 92.1342 47.3117H92.0783V54.0093H90.4111V39.0119H92.0783V40.4837H92.1342C93.1122 39.3379 94.3137 38.7604 95.7481 38.7604L95.7387 38.7418ZM92.069 44.0421C92.069 45.1599 92.4043 46.0542 93.0749 46.7435C93.7455 47.4142 94.6117 47.7682 95.6549 47.7961C96.7074 47.7961 97.555 47.4608 98.2163 46.7714C98.8776 46.0728 99.2129 45.1692 99.2222 44.0514C99.2222 42.9615 98.8869 42.0673 98.2163 41.3686C97.555 40.6607 96.6888 40.2974 95.6363 40.2974C94.5838 40.2974 93.7549 40.6514 93.0936 41.35C92.4323 42.0393 92.0877 42.9336 92.069 44.0514V44.0421Z" fill="#0A0605"/>
<path d="M108.611 38.7418C108.871 38.7418 109.095 38.779 109.291 38.8349L109.197 40.5396C108.871 40.4558 108.564 40.3999 108.285 40.3999C107.316 40.3999 106.58 40.7259 106.068 41.3686C105.574 42.0021 105.332 42.9056 105.332 44.07V49.0816H103.646V41.2382C103.646 41.0333 103.618 40.2788 103.572 38.984H105.164C105.192 39.99 105.202 40.5489 105.202 40.6514H105.239C105.518 40.0645 105.965 39.5988 106.58 39.2541C107.186 38.9001 107.866 38.7325 108.62 38.7325L108.611 38.7418Z" fill="#0A0605"/>
<path d="M112.215 33.814C112.55 33.814 112.839 33.9444 113.091 34.1866C113.333 34.4195 113.463 34.7083 113.463 35.0623C113.463 35.4162 113.342 35.7236 113.109 35.9565C112.876 36.1801 112.578 36.2825 112.215 36.2825C111.852 36.2825 111.572 36.1801 111.34 35.9565C111.107 35.7236 110.986 35.4255 110.986 35.0623C110.986 34.699 111.107 34.4195 111.358 34.1866C111.6 33.9444 111.889 33.814 112.215 33.814ZM113.072 38.9933V49.0816H111.386V38.9933H113.072Z" fill="#0A0605"/>
<path d="M118.94 36.1242V38.9933H121.93V40.4092H118.94V45.8027C118.94 46.6038 119.07 47.1347 119.331 47.3956C119.592 47.6564 119.964 47.7868 120.458 47.7868C121.008 47.7868 121.511 47.6843 121.948 47.4608L122.004 48.9791C121.436 49.2213 120.784 49.3517 120.048 49.3517C119.014 49.3517 118.288 49.1002 117.878 48.5972C117.478 48.0849 117.273 47.2372 117.273 46.0728V40.4278H115.056V39.0119H117.273V36.1428H118.94V36.1242Z" fill="#0A0605"/>
<path d="M140.045 32.7894V49.0909H138.36V47.3024H138.322C137.987 47.9545 137.456 48.4575 136.748 48.8208C136.05 49.1747 135.277 49.3424 134.438 49.3424C133.013 49.3424 131.821 48.8394 130.871 47.824C129.912 46.818 129.418 45.5511 129.4 44.0421C129.4 42.5051 129.893 41.2382 130.871 40.2601C131.849 39.2634 133.134 38.7604 134.718 38.7418C136.162 38.7418 137.363 39.3193 138.332 40.4651H138.369V32.7801H140.055L140.045 32.7894ZM131.216 44.0421C131.216 45.1599 131.542 46.0542 132.203 46.7435C132.874 47.4328 133.74 47.7775 134.783 47.7961C135.836 47.7961 136.674 47.4607 137.326 46.7714C137.987 46.0914 138.322 45.1785 138.35 44.0514C138.35 42.9615 138.015 42.0673 137.344 41.3686C136.683 40.6607 135.817 40.2974 134.764 40.2974C133.712 40.2974 132.883 40.6514 132.222 41.35C131.57 42.0393 131.234 42.9336 131.216 44.0514V44.0421Z" fill="#0A0605"/>
<path d="M146.239 33.814L144.47 38.9933H142.84L144.274 33.814H146.23H146.239Z" fill="#0A0605"/>
<path d="M153.942 38.7418C155.507 38.7418 156.783 39.2262 157.761 40.1949C158.757 41.1637 159.279 42.4492 159.335 44.0421C159.335 45.5884 158.832 46.846 157.817 47.824C156.811 48.8115 155.516 49.3052 153.933 49.3424C152.349 49.3424 151.064 48.8487 150.067 47.852C149.071 46.8553 148.558 45.5884 148.531 44.0514C148.531 42.4958 149.033 41.2289 150.049 40.2508C151.055 39.2727 152.349 38.7697 153.933 38.7604L153.942 38.7418ZM150.365 44.0421C150.365 45.1599 150.691 46.0542 151.353 46.7435C152.023 47.4142 152.889 47.7682 153.933 47.7961C154.985 47.7961 155.833 47.4608 156.494 46.7714C157.155 46.0728 157.491 45.1692 157.5 44.0514C157.5 42.9615 157.165 42.0673 156.494 41.3686C155.833 40.6607 154.966 40.2974 153.914 40.2974C152.862 40.2974 152.033 40.6514 151.371 41.35C150.71 42.0393 150.375 42.9336 150.365 44.0514V44.0421Z" fill="#0A0605"/>
<path d="M163.61 38.9933V45.1226C163.61 45.8958 163.787 46.5385 164.15 47.0229C164.523 47.5166 165.11 47.7681 165.92 47.7775C166.954 47.7775 167.727 47.4421 168.248 46.7528C168.779 46.0728 169.04 45.1506 169.04 43.9955V38.9839H170.707V46.8273C170.735 47.2465 170.763 47.9917 170.8 49.0816H169.208C169.189 48.4016 169.18 47.8427 169.17 47.4142H169.115C168.854 47.9824 168.425 48.4482 167.811 48.8114C167.196 49.1654 166.507 49.3331 165.734 49.3331C164.495 49.3145 163.545 48.9512 162.883 48.2246C162.231 47.498 161.915 46.5292 161.915 45.3089V38.9839H163.601L163.61 38.9933Z" fill="#0A0605"/>
<path d="M174.489 38.9933L177.637 46.9112H177.693L180.682 38.9933H182.489L178.512 49.0816H176.65L172.533 38.9933H174.489Z" fill="#0A0605"/>
<path d="M188.888 38.7418C190.369 38.7418 191.533 39.2168 192.381 40.1577C193.219 41.0892 193.648 42.4213 193.666 44.1539V44.5637H185.535C185.61 45.4953 185.964 46.2684 186.588 46.8739C187.212 47.4701 187.966 47.7775 188.86 47.7868C190.22 47.7868 191.273 47.2745 192.046 46.2498L193.331 47.2558C192.8 47.9451 192.176 48.4575 191.449 48.8115C190.723 49.1654 189.866 49.3331 188.869 49.3331C187.323 49.3331 186.085 48.8394 185.144 47.8427C184.212 46.846 183.737 45.5791 183.728 44.0421C183.728 42.5144 184.203 41.2662 185.163 40.2788C186.122 39.282 187.361 38.779 188.907 38.7418H188.888ZM191.859 43.1292C191.822 42.2629 191.533 41.5736 191.002 41.0706C190.481 40.5582 189.745 40.2974 188.786 40.2974C187.929 40.2974 187.202 40.5489 186.615 41.0333C186.029 41.5177 185.665 42.2163 185.526 43.1292H191.85H191.859Z" fill="#0A0605"/>
<path d="M201.238 38.7418C201.499 38.7418 201.723 38.779 201.918 38.8349L201.825 40.5396C201.499 40.4558 201.192 40.3999 200.912 40.3999C199.944 40.3999 199.208 40.7259 198.696 41.3686C198.202 42.0021 197.96 42.9056 197.96 44.07V49.0816H196.274V41.2382C196.274 41.0333 196.246 40.2788 196.2 38.984H197.792C197.82 39.99 197.83 40.5489 197.83 40.6514H197.867C198.146 40.0645 198.593 39.5988 199.208 39.2541C199.813 38.9001 200.493 38.7325 201.248 38.7325L201.238 38.7418Z" fill="#0A0605"/>
<path d="M206.398 36.1242V38.9933H209.388V40.4092H206.398V45.8027C206.398 46.6038 206.529 47.1347 206.79 47.3956C207.05 47.6564 207.423 47.7868 207.917 47.7868C208.466 47.7868 208.969 47.6843 209.407 47.4608L209.463 48.9791C208.895 49.2213 208.243 49.3517 207.507 49.3517C206.473 49.3517 205.746 49.1002 205.337 48.5972C204.936 48.0849 204.731 47.2372 204.731 46.0728V40.4278H202.514V39.0119H204.731V36.1428H206.398V36.1242Z" fill="#0A0605"/>
<path d="M213.133 38.9933V45.1226C213.133 45.8958 213.31 46.5385 213.673 47.0229C214.045 47.5166 214.632 47.7681 215.442 47.7775C216.476 47.7775 217.249 47.4421 217.771 46.7528C218.302 46.0728 218.563 45.1506 218.563 43.9955V38.9839H220.23V46.8273C220.258 47.2465 220.286 47.9917 220.323 49.0816H218.73C218.712 48.4016 218.702 47.8427 218.693 47.4142H218.637C218.376 47.9824 217.948 48.4482 217.333 48.8114C216.718 49.1654 216.029 49.3331 215.256 49.3331C214.017 49.3145 213.067 48.9512 212.406 48.2246C211.754 47.498 211.437 46.5292 211.437 45.3089V38.9839H213.123L213.133 38.9933Z" fill="#0A0605"/>
<path d="M228.389 38.7418C228.65 38.7418 228.873 38.779 229.069 38.8349L228.976 40.5396C228.65 40.4558 228.342 40.3999 228.063 40.3999C227.094 40.3999 226.358 40.7259 225.846 41.3686C225.352 42.0021 225.11 42.9056 225.11 44.07V49.0816H223.424V41.2382C223.424 41.0333 223.396 40.2788 223.35 38.984H224.943C224.97 39.99 224.98 40.5489 224.98 40.6514H225.017C225.296 40.0645 225.744 39.5988 226.358 39.2541C226.964 38.9001 227.644 38.7325 228.398 38.7325L228.389 38.7418Z" fill="#0A0605"/>
<path d="M235.607 38.7418C237.088 38.7418 238.252 39.2168 239.1 40.1577C239.938 41.0892 240.367 42.4213 240.385 44.1539V44.5637H232.254C232.329 45.4953 232.683 46.2684 233.307 46.8739C233.931 47.4701 234.685 47.7775 235.579 47.7868C236.939 47.7868 237.992 47.2745 238.765 46.2498L240.05 47.2558C239.519 47.9451 238.895 48.4575 238.169 48.8115C237.442 49.1654 236.585 49.3331 235.589 49.3331C234.042 49.3331 232.804 48.8394 231.863 47.8427C230.932 46.846 230.457 45.5791 230.447 44.0421C230.447 42.5144 230.922 41.2662 231.882 40.2788C232.841 39.282 234.08 38.779 235.626 38.7418H235.607ZM238.578 43.1292C238.541 42.2629 238.252 41.5736 237.722 41.0706C237.2 40.5582 236.464 40.2974 235.505 40.2974C234.648 40.2974 233.921 40.5489 233.335 41.0333C232.748 41.5177 232.385 42.2163 232.245 43.1292H238.569H238.578Z" fill="#0A0605"/>
<path d="M15.098 23.0364L0 30.9729V6.03622H18.0692V21.4714L15.9735 22.58V14.6062H15.098V23.0364Z" fill="#C50000"/>
<path d="M18.0692 26.0359L15.9735 27.1351V23.5674L18.0692 22.4682V26.0359Z" fill="#C50000"/>
<path d="M18.0692 36.5713L15.9735 37.6705V28.1225L18.0692 27.0233V36.5713Z" fill="#C50000"/>
<path d="M0 31.9603L15.098 24.0238V27.6008L8.54095 31.0474L8.94145 31.8206L15.098 28.5882V38.1363L9.07184 41.3034L9.48166 42.0766L15.098 39.1237V50.6H0V31.9603Z" fill="#C50000"/>
<path d="M18.0692 37.5587V50.5999H15.9735V38.6672L18.0692 37.5587Z" fill="#C50000"/>
<path d="M44.5582 23.6326V50.6H18.9447V37.1023L33.279 29.5663V35.7889H34.1545V29.1006L44.5582 23.6326Z" fill="#C50000"/>
<path d="M18.9447 26.5669L33.279 19.0309V28.5789L18.9447 36.1149V26.5669Z" fill="#C50000"/>
<path d="M18.9447 6.03622H33.279V18.0435L18.9447 25.5794V22.0024L31.5466 15.3793L31.1367 14.6062L18.9447 21.015V6.03622Z" fill="#C50000"/>
<path d="M44.5582 6.03622V12.1097L34.1544 17.5777V6.03622H44.5582Z" fill="#C50000"/>
<path d="M34.1544 18.5651L44.5582 13.0971V22.6451L34.1544 28.1131V18.5651Z" fill="#C50000"/>
</svg>
